<?xml version="1.0" standalone="no"?>
<!DOCTYPE svg PUBLIC "-//W3C//DTD SVG 20010904//EN"
 "http://www.w3.org/TR/2001/REC-SVG-20010904/DTD/svg10.dtd">
<svg version="1.0" xmlns="http://www.w3.org/2000/svg"
 width="260.000000pt" height="260.000000pt" viewBox="0 0 260.000000 260.000000"
 preserveAspectRatio="xMidYMid meet">
<metadata>
Created by potrace 1.11, written by Peter Selinger 2001-2013
</metadata>
<g transform="translate(0.000000,260.000000) scale(0.100000,-0.100000)"
fill="#000000" stroke="none">
<path d="M1150 2593 c-288 -44 -515 -147 -713 -323 -289 -256 -441 -609 -432
-1000 2 -80 6 -158 10 -175 21 -99 28 -128 51 -200 141 -442 511 -770 985
-871 118 -25 381 -25 498 0 316 68 570 223 766 466 127 158 234 389 261 565 3
22 10 60 14 85 9 48 6 306 -4 355 -4 17 -11 53 -16 80 -29 143 -104 319 -195
455 -64 96 -199 237 -302 314 -134 101 -339 194 -498 226 -27 5 -63 12 -80 16
-35 7 -308 13 -345 7z m600 -429 c64 -21 165 -87 192 -125 44 -59 13 -224 -56
-297 -59 -64 -165 -107 -311 -126 -135 -18 -175 -31 -175 -56 0 -23 49 -65 95
-80 43 -14 142 -18 203 -7 23 4 42 4 42 -1 0 -4 -25 -34 -56 -66 -122 -125
-240 -175 -477 -200 -64 -7 -57 -44 20 -95 57 -38 113 -54 164 -48 22 2 39 2
39 -2 -1 -3 -15 -27 -33 -52 -93 -134 -147 -164 -317 -175 -47 -3 -100 -9
-119 -13 l-35 -7 -62 -197 c-34 -109 -67 -204 -73 -211 -16 -20 -51 -8 -62 21
-10 26 -4 109 13 183 5 25 12 57 14 71 3 15 16 62 29 105 l24 79 -49 100 c-55
111 -78 207 -74 299 4 79 23 168 35 161 5 -4 9 -12 9 -20 0 -8 25 -62 55 -122
53 -107 107 -183 127 -183 10 0 5 173 -7 265 -8 58 -9 260 -1 319 15 121 52
192 147 282 73 68 253 193 223 154 -10 -13 -42 -100 -52 -140 -12 -51 -13
-163 -2 -190 15 -36 30 -38 57 -7 22 25 83 115 83 123 0 3 34 57 75 119 119
180 150 194 315 139z"/>
</g>
</svg>
